<svg xmlns="http://www.w3.org/2000/svg" width="64" height="64" viewBox="0 0 64 64">
    <g fill="none" fill-rule="evenodd">
        <polygon fill="#CC0000" points="0 64 64 64 64 0 0 0" />
        <g fill="#FFFFFF" transform="translate(10 22)">
            <path
                d="M4 0L17 0 17 0C19.7614237-5.07265313e-16 22 2.23857625 22 5L22 7 22 7C22 9.76142375 19.7614237 12 17 12L5 12 5 12C4.44771525 12 4 12.4477153 4 13L4 20 0 20 0 13 8.8817842e-16 13C1.77632003e-15 10.2385763 2.23857625 8 5 8L17 8 17 8C17.5522847 8 18 7.55228475 18 7L18 5 18 5C18 4.44771525 17.5522847 4 17 4L5 4 5 4C4.44771525 4 4 4.44771525 4 5L4 5.39999962 0 5.39999962 0 4 0 4C-2.705415e-16 1.790861 1.790861 4.05812251e-16 4 0zM24 0L44 0 44 4 36 4 36 15 36 15C36 15.5522847 36.4477153 16 37 16L37.4000015 16 37.4000015 20 37 20 37 20C34.2385763 20 32 17.7614237 32 15L32 4 24 4 24 0z" />
        </g>
    </g>
</svg>
